<?xml version="1.0" encoding="UTF-8" standalone="no"?>
<svg width="48px" height="48px" viewBox="0 0 48 48" version="1.1" xmlns="http://www.w3.org/2000/svg" xmlns:xlink="http://www.w3.org/1999/xlink">
    <!-- Generator: sketchtool 3.6.1 (26313) - http://www.bohemiancoding.com/sketch -->
    <title>45F4F7AF-0F6D-47B1-A0BE-A966BB89A403</title>
    <desc>Created with sketchtool.</desc>
    <defs></defs>
    <g id="Page-1" stroke="none" stroke-width="1" fill="none" fill-rule="evenodd">
        <g id="Select-Choice" transform="translate(-98.000000, -286.000000)" stroke="#016899">
            <g id="BuidingWealth" transform="translate(98.000000, 286.000000)">
                <path d="M48,0 L48,48 L0,48" id="Rectangle-317" stroke-linecap="round" stroke-linejoin="round" transform="translate(24.000000, 24.000000) scale(-1, 1) translate(-24.000000, -24.000000) "></path>
                <g id="Group-10" transform="translate(7.307852, 21.165037)" stroke-linecap="square">
                    <path d="M0,0.33896296 L3.3896296,0.33896296" id="Line"></path>
                    <path d="M0,5.0844444 L3.3896296,5.0844444" id="Line-Copy-7"></path>
                    <path d="M0,9.82992584 L3.3896296,9.82992584" id="Line-Copy-9"></path>
                    <path d="M0,14.5754073 L3.3896296,14.5754073" id="Line-Copy-11"></path>
                    <path d="M0,19.3208887 L3.3896296,19.3208887" id="Line-Copy-13"></path>
                    <path d="M0,2.71170368 L3.3896296,2.71170368" id="Line-Copy-6"></path>
                    <path d="M0,7.45718512 L3.3896296,7.45718512" id="Line-Copy-8"></path>
                    <path d="M0,12.2026666 L3.3896296,12.2026666" id="Line-Copy-10"></path>
                    <path d="M0,16.948148 L3.3896296,16.948148" id="Line-Copy-12"></path>
                    <path d="M0,21.6936294 L3.3896296,21.6936294" id="Line-Copy-14"></path>
                </g>
                <g id="Group-10-Copy" transform="translate(37.814518, 21.165037)" stroke-linecap="square">
                    <path d="M0,0.33896296 L3.3896296,0.33896296" id="Line"></path>
                    <path d="M0,5.0844444 L3.3896296,5.0844444" id="Line-Copy-7"></path>
                    <path d="M0,9.82992584 L3.3896296,9.82992584" id="Line-Copy-9"></path>
                    <path d="M0,14.5754073 L3.3896296,14.5754073" id="Line-Copy-11"></path>
                    <path d="M0,19.3208887 L3.3896296,19.3208887" id="Line-Copy-13"></path>
                    <path d="M0,2.71170368 L3.3896296,2.71170368" id="Line-Copy-6"></path>
                    <path d="M0,7.45718512 L3.3896296,7.45718512" id="Line-Copy-8"></path>
                    <path d="M0,12.2026666 L3.3896296,12.2026666" id="Line-Copy-10"></path>
                    <path d="M0,16.948148 L3.3896296,16.948148" id="Line-Copy-12"></path>
                    <path d="M0,21.6936294 L3.3896296,21.6936294" id="Line-Copy-14"></path>
                </g>
                <g id="Group-11" transform="translate(17.476741, 11.674074)" stroke-linecap="square">
                    <path d="M0,9.82992584 L3.3896296,9.82992584" id="Line-Copy-15"></path>
                    <path d="M0,0.33896296 L3.3896296,0.33896296" id="Line-Copy-25"></path>
                    <path d="M0,14.5754073 L3.3896296,14.5754073" id="Line-Copy-16"></path>
                    <path d="M0,5.0844444 L3.3896296,5.0844444" id="Line-Copy-26"></path>
                    <path d="M0,19.3208887 L3.3896296,19.3208887" id="Line-Copy-17"></path>
                    <path d="M0,24.0663702 L3.3896296,24.0663702" id="Line-Copy-18"></path>
                    <path d="M0,28.8118516 L3.3896296,28.8118516" id="Line-Copy-19"></path>
                    <path d="M0,12.2026666 L3.3896296,12.2026666" id="Line-Copy-20"></path>
                    <path d="M0,2.71170368 L3.3896296,2.71170368" id="Line-Copy-27"></path>
                    <path d="M0,16.948148 L3.3896296,16.948148" id="Line-Copy-21"></path>
                    <path d="M0,7.45718512 L3.3896296,7.45718512" id="Line-Copy-28"></path>
                    <path d="M0,21.6936294 L3.3896296,21.6936294" id="Line-Copy-22"></path>
                    <path d="M0,26.4391109 L3.3896296,26.4391109" id="Line-Copy-23"></path>
                    <path d="M0,31.1845923 L3.3896296,31.1845923" id="Line-Copy-24"></path>
                </g>
                <g id="Group-11-Copy" transform="translate(27.645629, 28.283259)" stroke-linecap="square">
                    <path d="M-1.84741111e-13,2.71170368 L3.3896296,2.71170368" id="Line-Copy-17"></path>
                    <path d="M-1.84741111e-13,7.45718512 L3.3896296,7.45718512" id="Line-Copy-18"></path>
                    <path d="M-1.84741111e-13,12.2026666 L3.3896296,12.2026666" id="Line-Copy-19"></path>
                    <path d="M-1.84741111e-13,0.33896296 L3.3896296,0.33896296" id="Line-Copy-21"></path>
                    <path d="M-1.84741111e-13,5.0844444 L3.3896296,5.0844444" id="Line-Copy-22"></path>
                    <path d="M-1.84741111e-13,9.82992584 L3.3896296,9.82992584" id="Line-Copy-23"></path>
                    <path d="M-1.84741111e-13,14.5754073 L3.3896296,14.5754073" id="Line-Copy-24"></path>
                </g>
            </g>
        </g>
    </g>
</svg>