<?xml version="1.0" encoding="UTF-8" standalone="no"?>
<svg width="43px" height="42px" viewBox="0 0 43 42" version="1.1" xmlns="http://www.w3.org/2000/svg" xmlns:xlink="http://www.w3.org/1999/xlink">
    <!-- Generator: sketchtool 3.6.1 (26313) - http://www.bohemiancoding.com/sketch -->
    <title>3775623D-D219-48CC-B090-6583E78577C7</title>
    <desc>Created with sketchtool.</desc>
    <defs></defs>
    <g id="Page-1" stroke="none" stroke-width="1" fill="none" fill-rule="evenodd">
        <g id="Select-Choice" transform="translate(-229.000000, -411.000000)" fill="#016899">
            <g id="RealEstate" transform="translate(229.000000, 411.000000)">
                <path d="M27.4358093,39.3776307 L27.4358093,22.5074839 L16.1890447,22.5074839 L16.1890447,39.3776307 L6.81674095,39.3776307 L6.81674095,17.6338747 L4.9422802,19.133477 L4.9422802,41.2520915 L38.6825738,41.2520915 L38.6825738,19.133477 L36.8081131,17.6338747 L36.8220703,39.3776307 L27.4358093,39.3776307 L27.4358093,39.3776307 Z M18.0635055,39.3776307 L25.5613485,39.3776307 L25.5613485,24.3819447 L18.0635055,24.3819447 L18.0635055,39.3776307 L18.0635055,39.3776307 Z M21.812427,3.12099537 L41.6330182,19.1394941 L42.812427,17.6825788 L21.812427,0.682578726 L0.812427016,17.6825788 L1.99183585,19.1394941 L21.812427,3.12099537 L21.812427,3.12099537 Z M40.5570346,3.76287634 L34.9336523,3.76287634 L34.9336523,8.89284993 L36.8081131,10.4102709 L36.8081131,5.6373371 L38.6825738,5.6373371 L38.6825738,11.9276919 L40.5570346,13.445111 L40.5570346,3.76287634 L40.5570346,3.76287634 Z" id="house-home-real_estate-property-outline-stroke"></path>
            </g>
        </g>
    </g>
</svg>