<?xml version="1.0" encoding="UTF-8" standalone="no"?>
<svg width="48px" height="48px" viewBox="0 0 48 48" version="1.1" xmlns="http://www.w3.org/2000/svg" xmlns:xlink="http://www.w3.org/1999/xlink">
    <!-- Generator: sketchtool 3.6.1 (26313) - http://www.bohemiancoding.com/sketch -->
    <title>6D3B14EC-4B8C-46E0-81CE-8291435F4B55</title>
    <desc>Created with sketchtool.</desc>
    <defs></defs>
    <g id="Page-1" stroke="none" stroke-width="1" fill="none" fill-rule="evenodd">
        <g id="Select-Choice" transform="translate(-226.000000, -286.000000)" fill="#016899">
            <g id="Retirement" transform="translate(226.000000, 286.000000)">
                <path d="M24,12.909375 C30.1125,12.909375 35.090625,17.8875 35.090625,24 C35.090625,30.1125 30.1125,35.090625 24,35.090625 C17.8875,35.090625 12.909375,30.1125 12.909375,24 C12.909375,17.8875 17.8875,12.909375 24,12.909375 L24,12.909375 Z M24,10.93125 C16.790625,10.93125 10.93125,16.790625 10.93125,24 C10.93125,31.209375 16.8,37.06875 24,37.06875 C31.2,37.06875 37.06875,31.209375 37.06875,24 C37.06875,16.790625 31.2,10.93125 24,10.93125 L24,10.93125 L24,10.93125 Z" id="Shape"></path>
                <path d="M24,7.78125 C23.45625,7.78125 23.015625,7.340625 23.015625,6.796875 L23.015625,0.984375 C23.015625,0.440625 23.45625,0 24,0 C24.54375,0 24.984375,0.440625 24.984375,0.984375 L24.984375,6.7875 C24.984375,7.340625 24.54375,7.78125 24,7.78125 L24,7.78125 Z" id="Shape"></path>
                <path d="M24,48 C23.45625,48 23.015625,47.559375 23.015625,47.015625 L23.015625,41.2125 C23.015625,40.66875 23.45625,40.228125 24,40.228125 C24.54375,40.228125 24.984375,40.66875 24.984375,41.2125 L24.984375,47.015625 C24.984375,47.559375 24.54375,48 24,48 L24,48 Z" id="Shape"></path>
                <path d="M6.7875,24.984375 L0.984375,24.984375 C0.440625,24.984375 0,24.54375 0,24 C0,23.45625 0.440625,23.015625 0.984375,23.015625 L6.7875,23.015625 C7.33125,23.015625 7.771875,23.45625 7.771875,24 C7.78125,24.54375 7.340625,24.984375 6.7875,24.984375 L6.7875,24.984375 Z" id="Shape"></path>
                <path d="M47.015625,24.984375 L41.2125,24.984375 C40.66875,24.984375 40.228125,24.54375 40.228125,24 C40.228125,23.45625 40.66875,23.015625 41.2125,23.015625 L47.015625,23.015625 C47.559375,23.015625 48,23.45625 48,24 C48,24.54375 47.559375,24.984375 47.015625,24.984375 L47.015625,24.984375 Z" id="Shape"></path>
                <path d="M7.725,41.259375 C7.471875,41.259375 7.21875,41.165625 7.021875,40.96875 C6.6375,40.584375 6.6375,39.95625 7.021875,39.571875 L11.128125,35.465625 C11.5125,35.08125 12.140625,35.08125 12.525,35.465625 C12.909375,35.85 12.909375,36.478125 12.525,36.8625 L8.428125,40.96875 C8.23125,41.165625 7.978125,41.259375 7.725,41.259375 L7.725,41.259375 Z" id="Shape"></path>
                <path d="M36.16875,12.815625 C35.915625,12.815625 35.6625,12.721875 35.465625,12.525 C35.08125,12.140625 35.08125,11.5125 35.465625,11.128125 L39.571875,7.03125 C39.95625,6.646875 40.584375,6.646875 40.96875,7.03125 C41.353125,7.415625 41.353125,8.04375 40.96875,8.428125 L36.8625,12.534375 C36.675,12.721875 36.421875,12.815625 36.16875,12.815625 L36.16875,12.815625 Z" id="Shape"></path>
                <path d="M40.275,41.259375 C40.021875,41.259375 39.76875,41.165625 39.571875,40.96875 L35.465625,36.8625 C35.08125,36.478125 35.08125,35.85 35.465625,35.465625 C35.85,35.08125 36.478125,35.08125 36.8625,35.465625 L40.96875,39.571875 C41.353125,39.95625 41.353125,40.584375 40.96875,40.96875 C40.78125,41.165625 40.528125,41.259375 40.275,41.259375 L40.275,41.259375 Z" id="Shape"></path>
                <path d="M11.83125,12.815625 C11.578125,12.815625 11.325,12.721875 11.128125,12.525 L7.03125,8.428125 C6.646875,8.04375 6.646875,7.415625 7.03125,7.03125 C7.415625,6.646875 8.04375,6.646875 8.428125,7.03125 L12.534375,11.1375 C12.91875,11.521875 12.91875,12.15 12.534375,12.534375 C12.3375,12.721875 12.084375,12.815625 11.83125,12.815625 L11.83125,12.815625 Z" id="Shape"></path>
            </g>
        </g>
    </g>
</svg>