<?xml version="1.0" encoding="UTF-8" standalone="no"?>
<svg width="48px" height="48px" viewBox="0 0 48 48" version="1.1" xmlns="http://www.w3.org/2000/svg" xmlns:xlink="http://www.w3.org/1999/xlink">
    <!-- Generator: sketchtool 3.6.1 (26313) - http://www.bohemiancoding.com/sketch -->
    <title>12CCE56E-4A2D-4AF7-9BC9-ED72D0BAFA90</title>
    <desc>Created with sketchtool.</desc>
    <defs></defs>
    <g id="Page-1" stroke="none" stroke-width="1" fill="none" fill-rule="evenodd">
        <g id="Select-Choice" transform="translate(-98.000000, -407.000000)" fill="#016899">
            <g id="SafetyNet" transform="translate(122.000000, 431.000000) scale(-1, 1) translate(-122.000000, -431.000000) translate(98.000000, 407.000000)">
                <path d="M46.5875644,24.7432871 C46.0628911,24.7432871 45.6370693,24.3179406 45.6370693,23.7927921 C45.6370693,11.7352871 35.8270099,1.92522772 23.7685545,1.92522772 C11.7110495,1.92570297 1.9009901,11.7357624 1.9009901,23.7932673 C1.9009901,24.3184158 1.47516832,24.7437624 0.95049505,24.7437624 C0.425821782,24.7437624 -3.55271368e-15,24.3184158 -3.55271368e-15,23.7932673 C-3.55271368e-15,10.6873663 10.6631287,0.0247128713 23.7690297,0.0247128713 C36.8754059,0.0247128713 47.5385347,10.6873663 47.5385347,23.7932673 C47.5380594,24.3184158 47.1127129,24.7432871 46.5875644,24.7432871 L46.5875644,24.7432871 Z" id="Shape"></path>
                <path d="M46.5424158,25.397703 C46.0177426,25.397703 45.5919208,24.9723564 45.5919208,24.4472079 C45.5919208,21.7877228 43.4618614,19.6234455 40.8437228,19.6234455 C38.2251089,19.6234455 36.0950495,21.7877228 36.0950495,24.4472079 C36.0950495,24.9723564 35.6692277,25.397703 35.1445545,25.397703 C34.6198812,25.397703 34.1940594,24.9723564 34.1940594,24.4472079 L34.1940594,24.2129109 C34.1940594,21.5524752 32.0644752,19.3886733 29.4468119,19.3886733 C26.828198,19.3886733 24.6981386,21.5529505 24.6981386,24.2129109 L24.6981386,24.4472079 C24.6981386,24.9723564 24.2723168,25.397703 23.7476436,25.397703 C23.2229703,25.397703 22.7971485,24.9723564 22.7971485,24.4472079 C22.7971485,21.7877228 20.6670891,19.6234455 18.048,19.6234455 C15.4298614,19.6234455 13.3002772,21.7877228 13.3002772,24.4472079 C13.3002772,24.9723564 12.8744554,25.397703 12.3497822,25.397703 C11.8251089,25.397703 11.3992871,24.9723564 11.3992871,24.4472079 C11.3992871,21.7877228 9.26922772,19.6234455 6.65108911,19.6234455 C4.03247525,19.6234455 1.90194059,21.7877228 1.90194059,24.4472079 C1.90194059,24.9723564 1.47611881,25.397703 0.951445545,25.397703 C0.426772277,25.397703 0.000950495049,24.9723564 0.000950495049,24.4472079 C0.000950495049,20.7393267 2.98407921,17.7224554 6.65108911,17.7224554 C9.06677228,17.7224554 11.1854257,19.0317624 12.3497822,20.985505 C13.5141386,19.0317624 15.6327921,17.7224554 18.048,17.7224554 C20.4161584,17.7224554 22.4991683,18.9809109 23.6777822,20.8709703 C24.8264554,18.8511683 26.9821782,17.4876832 29.4472871,17.4876832 C31.9114455,17.4876832 34.0671683,18.8506931 35.2153663,20.8709703 C36.393505,18.9804356 38.4765149,17.7224554 40.8446733,17.7224554 C44.5112079,17.7224554 47.4938614,20.7393267 47.4938614,24.4472079 C47.4929109,24.9728317 47.0670891,25.397703 46.5424158,25.397703 L46.5424158,25.397703 Z" id="Shape"></path>
                <g id="Group" transform="translate(22.336634, 22.811881)">
                    <path d="M1.37916832,21.6879208 C0.85449505,21.6879208 0.428673267,21.262099 0.428673267,20.7374257 L0.428673267,0.981386139 C0.428673267,0.456712871 0.85449505,0.0308910891 1.37916832,0.0308910891 C1.90384158,0.0308910891 2.32966337,0.456712871 2.32966337,0.981386139 L2.32966337,20.7374257 C2.32966337,21.2616238 1.90431683,21.6879208 1.37916832,21.6879208 L1.37916832,21.6879208 Z" id="Shape"></path>
                    <path d="M4.49679208,24.6544158 L4.34661386,24.6544158 C2.18661386,24.6544158 0.429148515,22.8974257 0.429148515,20.7374257 C0.429148515,20.2122772 0.854970297,19.7869307 1.37964356,19.7869307 C1.90431683,19.7869307 2.33013861,20.2122772 2.33013861,20.7374257 C2.33013861,21.849505 3.23453465,22.7534257 4.34661386,22.7534257 L4.49679208,22.7534257 C5.60839604,22.7534257 6.51231683,21.849505 6.51231683,20.7374257 C6.51231683,20.2122772 6.93813861,19.7869307 7.46281188,19.7869307 C7.98748515,19.7869307 8.41330693,20.2122772 8.41330693,20.7374257 C8.41330693,22.8974257 6.65631683,24.6544158 4.49679208,24.6544158 L4.49679208,24.6544158 Z" id="Shape"></path>
                </g>
            </g>
        </g>
    </g>
</svg>