<?xml version="1.0" encoding="UTF-8" standalone="no"?>
<svg width="19px" height="19px" viewBox="0 0 19 19" version="1.1" xmlns="http://www.w3.org/2000/svg" xmlns:xlink="http://www.w3.org/1999/xlink">
    <!-- Generator: sketchtool 3.6.1 (26313) - http://www.bohemiancoding.com/sketch -->
    <title>9E972344-0AA1-422A-9F53-F31136B4FCC8</title>
    <desc>Created with sketchtool.</desc>
    <defs></defs>
    <g id="Page-1" stroke="none" stroke-width="1" fill="none" fill-rule="evenodd">
        <g id="TellUsAbout" transform="translate(-179.000000, -34.000000)" fill="#FFFFFF">
            <g id="Navigation-Bar/Back">
                <g id="logo-icon" transform="translate(178.000000, 34.000000)">
                    <g id="logo" transform="translate(0.941176, 0.000000)">
                        <path d="M6.76938824,0.103194958 C6.40888403,0.103194958 6.11687059,0.395214454 6.11687059,0.755296471 L6.11687059,5.32883025 L18.1979597,5.32883025 L12.696279,0.103617815 L6.76938824,0.103194958" id="logo-ne"></path>
                        <path d="M18.6399765,6.71244303 C18.6399765,6.35151496 18.3500605,6.06075832 17.9874588,6.06075832 L13.4151866,6.06075832 L13.4151866,18.1422689 L18.6378723,12.6380723 L18.6399765,6.71244303" id="logo-se"></path>
                        <path d="M12.0298958,18.5796639 C12.3895597,18.5796639 12.6815731,18.2872269 12.6815731,17.9263059 L12.6815731,13.3544595 L0.600060504,13.3544595 L6.10257815,18.5788235 L12.0298958,18.5796639" id="logo-sw"></path>
                        <path d="M0.158467227,11.9712629 C0.158467227,12.3317681 0.450480672,12.6254676 0.81182521,12.6254676 L5.38325378,12.6254676 L5.38325378,0.543115966 L0.159307563,6.04563395 L0.158467227,11.9712629" id="logo-nw"></path>
                    </g>
                </g>
            </g>
        </g>
    </g>
</svg>