<?xml version="1.0" encoding="UTF-8" standalone="no"?>
<svg width="106px" height="20px" viewBox="0 0 106 20" version="1.1" xmlns="http://www.w3.org/2000/svg" xmlns:xlink="http://www.w3.org/1999/xlink">
    <!-- Generator: sketchtool 3.6.1 (26313) - http://www.bohemiancoding.com/sketch -->
    <title>EF18486D-37C2-4517-A57E-6C7041D1ED65</title>
    <desc>Created with sketchtool.</desc>
    <defs></defs>
    <g id="Page-1" stroke="none" stroke-width="1" fill="none" fill-rule="evenodd">
        <g id="Starting" transform="translate(-135.000000, -34.000000)" fill="#FFFFFF">
            <g id="Logo-with-Text" transform="translate(135.000000, 34.000000)">
                <g id="logo" transform="translate(86.000000, 0.000000)">
                    <path d="M7.192475,0.109644643 C6.80943929,0.109644643 6.499175,0.419915357 6.499175,0.8025025 L6.499175,5.66188214 L19.3353321,5.66188214 L13.4897964,0.110093929 L7.192475,0.109644643" id="logo-ne"></path>
                    <path d="M19.804975,7.13197071 C19.804975,6.74848464 19.4969393,6.43955571 19.111675,6.43955571 L14.2536357,6.43955571 L14.2536357,19.2761607 L19.8027393,13.4279518 L19.804975,7.13197071" id="logo-se"></path>
                    <path d="M12.7817643,19.7408929 C13.1639071,19.7408929 13.4741714,19.4301786 13.4741714,19.0467 L13.4741714,14.1891132 L0.637564286,14.1891132 L6.48398929,19.74 L12.7817643,19.7408929" id="logo-sw"></path>
                    <path d="M0.168371429,12.7194668 C0.168371429,13.1025036 0.478635714,13.4145593 0.862564286,13.4145593 L5.71970714,13.4145593 L5.71970714,0.577060714 L0.169264286,6.42348607 L0.168371429,12.7194668" id="logo-nw"></path>
                </g>
                <g id="type" transform="translate(0.000000, 4.000000)">
                    <path d="M27.1611292,0.30288314 L27.1611292,6.09314128 L18.9752885,6.09314128 L18.9752885,0.30288314 L15.993869,0.300268605 L15.993869,14.8999744 L18.9752885,14.8999744 L18.9752885,8.6278814 L27.1611292,8.6278814 L27.1611292,14.8999744 L30.1474088,14.8999744 L30.1474088,0.30288314 L27.1611292,0.30288314" id="H"></path>
                    <path d="M66.823515,0.30288314 L66.823515,14.8964895 L79.9036071,14.8964895 L78.2469664,12.3273035 L69.8133416,12.3273035 L69.8133416,8.6278814 L77.9797097,8.6278814 L77.9797097,6.1533157 L69.8133416,6.1533157 L69.8133416,2.81189372 L78.2328106,2.81189372 L79.8558159,0.30288314 L66.823515,0.30288314" id="E"></path>
                    <path d="M4.9115646,0.299389884 C1.81024425,0.299389884 0.243869027,2.15738477 0.243869027,4.86087837 L0.243869027,10.3105884 C0.243869027,13.4392151 2.26244956,14.8999744 4.89608496,14.8999744 L14.2500673,14.8991023 L12.5159929,12.2305012 L5.47396106,12.2305012 C3.97793628,12.2305012 3.32616991,11.6976523 3.32616991,10.0476471 L3.32616991,5.10332023 C3.32616991,3.50826 3.87484602,2.88602093 5.51378053,2.88602093 L12.5894442,2.88602093 L14.2544885,0.299389884 L4.9115646,0.299389884" id="C"></path>
                    <path d="M53.7403327,0.295903605 C51.9491788,0.295903605 50.1133381,1.35680407 50.1133381,4.08558767 L50.1133381,4.78674488 C50.1133381,7.63151337 51.8797133,8.71683209 53.6469699,8.72425116 L59.8500673,8.72425116 C60.4943115,8.72425116 61.0177628,8.82976953 61.0177628,9.90287965 L61.0168779,11.1425606 C61.0005062,12.1066587 60.5124531,12.3273035 59.8279398,12.3273035 L51.6673168,12.3273035 L49.9956354,14.8964895 L60.0199788,14.8964895 C62.4372354,14.8964895 64.0783858,13.7113116 64.0783858,10.9738134 L64.0783858,9.96785128 C64.0783858,7.32105244 62.5536071,6.07046581 60.1894478,6.07046581 L54.2664354,6.07046581 C53.6097947,6.07046581 53.1522761,5.89386733 53.1522761,4.93543814 L53.1522761,3.92598942 C53.1522761,3.10971314 53.4659929,2.81189372 54.2310372,2.81189372 L62.0027186,2.80883965 L63.6270549,0.292416977 L53.7403327,0.295903605" id="S"></path>
                    <path d="M38.8093593,0.30288314 L31.785023,14.8991023 L35.1049274,14.8991023 L36.4730761,11.88471 L44.1062584,11.88471 L45.4699752,14.8991023 L48.804492,14.8991023 L41.7637841,0.30288314 L38.8093593,0.30288314 L38.8093593,0.30288314 Z M40.2823646,3.333405 L42.9814832,9.40011802 L37.6005027,9.40011802 L40.2823646,3.333405 L40.2823646,3.333405 Z" id="A"></path>
                </g>
            </g>
        </g>
    </g>
</svg>