<?xml version="1.0" encoding="UTF-8" standalone="no"?>
<svg width="16px" height="16px" viewBox="0 0 16 16" version="1.1" xmlns="http://www.w3.org/2000/svg" xmlns:xlink="http://www.w3.org/1999/xlink">
    <!-- Generator: sketchtool 3.6.1 (26313) - http://www.bohemiancoding.com/sketch -->
    <title>7055491B-82AF-4773-A460-10CBC751E679</title>
    <desc>Created with sketchtool.</desc>
    <defs></defs>
    <g id="Page-1" stroke="none" stroke-width="1" fill="none" fill-rule="evenodd">
        <g id="Starting" transform="translate(-349.000000, -34.000000)" fill="#FFFFFF">
            <path d="M359.028269,45.5220033 C357.990224,46.2616734 356.720104,46.6967381 355.348369,46.6967381 C351.842261,46.6967381 349,43.8544766 349,40.348369 C349,36.8422615 351.842261,34 355.348369,34 C358.854477,34 361.696738,36.8422615 361.696738,40.348369 C361.696738,41.7201039 361.261673,42.9902238 360.522003,44.0282694 L364.693107,48.1993728 C365.104034,48.6102998 365.100608,49.2678041 364.692958,49.6754537 L364.675454,49.692958 C364.268847,50.0995648 363.60694,50.1006741 363.199373,49.6931067 L359.028269,45.5220033 L359.028269,45.5220033 L359.028269,45.5220033 Z M355.348369,45.2030042 C358.02951,45.2030042 360.203004,43.0295102 360.203004,40.348369 C360.203004,37.6672279 358.02951,35.4937339 355.348369,35.4937339 C352.667228,35.4937339 350.493734,37.6672279 350.493734,40.348369 C350.493734,43.0295102 352.667228,45.2030042 355.348369,45.2030042 L355.348369,45.2030042 L355.348369,45.2030042 Z" id="search"></path>
        </g>
    </g>
</svg>